<?xml version="1.0" standalone="no"?>
<!DOCTYPE svg PUBLIC "-//W3C//DTD SVG 20010904//EN"
 "http://www.w3.org/TR/2001/REC-SVG-20010904/DTD/svg10.dtd">
<svg version="1.0" xmlns="http://www.w3.org/2000/svg"
 width="512.000000pt" height="512.000000pt" viewBox="0 0 512.000000 512.000000"
 preserveAspectRatio="xMidYMid meet">
<metadata>
Created by potrace 1.14, written by Peter Selinger 2001-2017
</metadata>
<g transform="translate(0.000000,512.000000) scale(0.100000,-0.100000)"
fill="#000000" stroke="none">
<path d="M1118 5110 c-52 -9 -211 -60 -206 -65 2 -2 35 5 73 16 157 43 287 44
460 3 194 -47 388 -168 500 -314 96 -124 171 -293 181 -405 2 -27 2 -43 -2
-35 -17 44 -31 63 -56 76 -52 27 -124 10 -134 -33 -7 -28 19 -73 42 -73 13 0
15 7 10 34 -12 61 41 73 84 19 30 -38 26 -88 -9 -124 -70 -70 -134 -29 -333
211 -125 150 -264 210 -493 210 -101 0 -160 13 -256 57 -109 50 -178 127 -180
200 l0 28 -10 -25 c-36 -90 73 -197 274 -267 57 -20 102 -27 217 -33 244 -14
307 -48 480 -260 127 -156 201 -204 275 -180 39 13 85 62 85 90 0 10 5 22 10
25 14 9 4 -103 -21 -225 -47 -228 -51 -256 -47 -336 3 -73 7 -87 33 -126 44
-61 115 -90 208 -84 59 4 67 3 57 -9 -7 -8 -36 -26 -66 -41 -30 -14 -51 -30
-48 -35 10 -16 86 -30 126 -24 50 9 48 -1 -14 -52 -135 -111 -319 -153 -518
-119 -172 29 -278 99 -320 209 l-18 47 27 14 c49 26 163 150 230 251 65 99 66
100 103 97 50 -4 75 11 87 54 12 44 -4 91 -41 120 -21 16 -23 24 -16 44 l9 24
25 -25 c17 -17 27 -43 34 -83 10 -64 14 -71 29 -61 32 19 -6 145 -55 184 -13
10 -24 29 -25 42 0 21 -2 22 -11 8 -10 -15 -15 -15 -55 3 -24 11 -75 21 -116
24 l-72 4 72 -19 c39 -11 90 -29 112 -40 38 -20 40 -23 30 -49 -5 -15 -20 -35
-32 -44 l-22 -18 32 0 c68 0 103 -113 41 -134 -21 -8 -32 -6 -46 7 -24 22 -32
21 -32 -2 0 -39 -171 -256 -255 -324 -244 -197 -607 -226 -904 -72 -228 119
-366 300 -407 536 -9 52 -17 96 -19 98 -2 1 -7 -14 -11 -34 -8 -45 9 -157 36
-227 11 -29 18 -53 16 -55 -2 -2 -31 26 -64 62 -74 81 -118 178 -134 298 -14
98 -28 122 -28 47 1 -183 107 -392 238 -467 26 -15 71 -53 100 -85 58 -62 167
-148 241 -188 41 -22 46 -29 47 -60 0 -19 4 -53 8 -74 6 -28 6 -37 -2 -32 -24
14 -100 -74 -153 -177 -65 -127 -107 -184 -198 -270 -85 -80 -148 -127 -246
-182 -78 -45 -87 -62 -59 -120 38 -81 72 -78 247 17 128 70 190 114 264 187
29 28 54 51 56 51 8 0 -3 -75 -24 -175 -21 -96 -50 -165 -105 -245 l-34 -50
24 -15 c13 -8 54 -22 91 -30 37 -7 69 -16 71 -18 2 -2 -6 -28 -20 -58 -37 -85
-142 -566 -153 -702 -5 -67 -3 -80 13 -98 86 -95 559 -175 732 -124 29 9 52
20 52 25 0 5 6 7 14 4 9 -4 16 6 21 33 10 57 15 58 38 11 20 -40 25 -43 57
-40 l36 2 1 -57 c1 -33 17 -109 38 -178 32 -108 44 -149 60 -222 5 -21 3 -22
-21 -13 -39 15 -55 5 -94 -56 -50 -80 -110 -126 -171 -132 -45 -4 -49 -3 -49
17 0 27 15 58 44 89 24 27 136 92 157 92 8 0 26 6 41 14 19 10 29 11 37 3 20
-20 25 3 8 39 -10 19 -46 79 -80 132 -35 53 -78 123 -96 155 -18 32 -35 56
-38 54 -6 -7 57 -130 127 -249 33 -55 60 -103 60 -108 0 -4 -19 -11 -43 -14
-66 -10 -142 -51 -195 -103 -59 -59 -71 -96 -44 -132 53 -72 209 3 285 138
l31 54 27 -30 c14 -17 29 -37 32 -44 3 -11 7 -11 17 -2 16 15 5 100 -21 150
-10 20 -19 43 -19 51 0 8 -18 68 -40 133 -27 81 -40 137 -40 173 0 51 2 55 28
60 36 8 122 74 141 108 14 24 12 29 -27 94 -88 147 -99 200 -109 531 l-6 212
45 20 c25 11 48 23 51 29 4 5 -8 38 -24 73 -37 77 -99 239 -127 330 -18 58
-26 114 -23 158 2 27 35 -15 86 -111 41 -77 72 -116 176 -223 69 -71 136 -149
149 -172 13 -24 27 -43 32 -43 15 0 8 -29 -10 -42 -30 -22 -35 -37 -18 -63 13
-20 13 -25 1 -35 -23 -19 -19 -61 5 -67 14 -4 19 -11 15 -23 -9 -29 22 -52 59
-44 48 10 69 33 62 69 -8 36 -14 87 -18 135 -3 34 -5 36 -64 55 -1 0 -4 9 -8
20 -5 18 1 22 44 32 28 7 57 10 65 7 12 -5 14 0 8 27 -3 21 -32 65 -73 114
-92 109 -143 191 -261 417 -119 228 -130 247 -181 315 l-40 52 32 40 c18 22
35 55 39 73 11 53 37 48 51 -10 22 -94 107 -165 250 -209 74 -24 101 -27 215
-27 114 1 139 4 203 27 40 14 104 44 142 66 78 47 170 134 170 162 0 23 5 23
-65 -1 -32 -11 -74 -20 -94 -20 l-36 1 30 22 c80 58 164 151 151 164 -3 4 -19
-5 -34 -19 -36 -34 -83 -48 -156 -47 -82 0 -123 16 -160 62 -31 39 -31 40 -30
150 1 86 8 138 28 222 36 142 45 335 23 442 -84 393 -453 693 -872 708 -60 2
-131 0 -157 -5z m-396 -1773 c24 -25 46 -36 80 -41 27 -4 54 -4 60 0 7 5 -4
-9 -25 -29 -20 -21 -37 -42 -37 -47 0 -16 -82 75 -101 113 -11 20 -18 37 -15
37 2 0 19 -15 38 -33z m639 -11 c-39 -40 -157 -97 -258 -125 l-73 -20 -6 27
c-4 15 -12 38 -19 52 l-13 25 118 1 c114 1 121 2 192 37 92 45 100 45 59 3z
m-744 -196 c-13 -106 -125 -311 -217 -393 -89 -80 -269 -176 -331 -177 -24 0
-39 15 -39 40 0 5 21 16 48 24 137 46 372 270 457 436 23 45 74 120 82 120 3
0 3 -22 0 -50z m307 -59 c24 -26 17 -60 -16 -84 -35 -26 -75 -15 -97 25 -15
25 -14 29 8 52 30 32 80 35 105 7z m600 -84 c23 -24 65 -88 95 -142 105 -195
143 -253 228 -352 29 -33 53 -64 53 -67 0 -6 -55 -36 -67 -36 -5 0 -23 24 -40
53 -17 29 -64 89 -103 132 -94 104 -137 163 -187 255 -50 92 -67 144 -59 176
9 35 34 30 80 -19z m-437 -43 c35 -10 62 -64 105 -212 39 -137 61 -181 123
-245 48 -50 85 -113 85 -146 0 -28 -3 -30 -82 -50 -46 -12 -94 -26 -108 -31
-80 -28 -273 -22 -289 9 -6 11 -4 44 5 91 8 41 14 116 14 165 0 50 5 119 11
155 5 36 14 92 19 125 11 68 35 119 64 134 26 12 26 12 53 5z m-186 -122 c27
-24 31 -33 25 -56 -8 -33 -63 -60 -102 -50 -59 15 -69 93 -14 121 38 19 57 16
91 -15z m-201 -27 c0 -8 5 -59 11 -113 12 -109 1 -248 -26 -339 l-15 -52 -33
10 c-17 5 -41 9 -53 9 -12 0 -38 7 -58 15 l-36 15 23 38 c106 172 146 268 162
385 3 26 10 47 16 47 5 0 9 -7 9 -15z m1168 -507 c17 -17 15 -23 -13 -36 -54
-25 -91 -7 -59 29 19 21 54 25 72 7z m17 -77 c11 -19 -85 -74 -101 -58 -11 11
8 49 29 57 29 12 65 12 72 1z m-1153 -63 c28 -24 57 -74 69 -124 25 -102 61
-151 179 -245 114 -89 140 -137 148 -268 6 -120 1 -138 -46 -150 -95 -27 -379
6 -480 55 -100 49 -112 110 -61 299 16 61 40 163 54 227 35 169 59 218 105
218 9 0 23 -6 32 -12z m1165 -13 c6 -20 -22 -46 -52 -48 -40 -3 -46 27 -8 47
30 17 54 17 60 1z"/>
<path d="M530 5017 c-142 -43 -254 -125 -346 -253 -75 -105 -134 -258 -134
-346 0 -46 22 -9 51 85 69 225 174 365 339 451 87 46 157 59 273 54 102 -4
115 2 43 21 -67 17 -142 13 -226 -12z"/>
<path d="M1287 4970 c4 -5 43 -17 85 -29 90 -24 227 -85 293 -131 25 -17 75
-59 111 -92 85 -80 87 -49 2 36 -62 61 -186 135 -290 172 -55 20 -212 54 -201
44z"/>
<path d="M543 4935 c-70 -19 -124 -47 -162 -85 -29 -30 -39 -50 -25 -50 4 0
25 15 48 34 47 38 108 71 181 97 60 21 32 24 -42 4z"/>
<path d="M746 4889 c-15 -12 -63 -68 -107 -125 -90 -116 -129 -151 -220 -194
-82 -39 -140 -40 -175 -5 -29 29 -30 81 -2 99 13 8 22 5 41 -12 27 -26 37 -20
37 20 0 61 -93 59 -125 -3 -8 -15 -15 -46 -15 -68 0 -32 6 -44 31 -65 26 -22
40 -26 98 -26 123 0 246 82 346 231 51 74 96 133 113 146 8 7 13 15 10 18 -3
3 -17 -4 -32 -16z"/>
<path d="M1163 4873 c9 -2 25 -2 35 0 9 3 1 5 -18 5 -19 0 -27 -2 -17 -5z"/>
<path d="M544 4850 c-46 -23 -96 -70 -74 -70 13 0 140 78 140 86 0 9 -28 2
-66 -16z"/>
<path d="M1240 4860 c63 -20 141 -55 232 -106 106 -58 134 -67 100 -31 -53 57
-257 148 -327 146 -29 -1 -29 -1 -5 -9z"/>
<path d="M593 4569 c-49 -14 -40 -20 21 -13 48 6 61 3 101 -21 54 -31 70 -26
33 12 -30 29 -99 39 -155 22z"/>
<path d="M268 4450 c-14 -25 -23 -30 -56 -30 -67 0 -139 -27 -165 -63 -53 -72
-41 -95 17 -33 41 44 90 66 149 66 25 0 27 -3 27 -44 l0 -43 -48 5 c-41 3 -52
0 -79 -22 -57 -48 -52 -118 9 -156 44 -27 71 -25 105 5 l28 26 -56 -7 c-66 -7
-89 8 -89 60 0 59 39 77 135 64 18 -3 20 4 23 56 l3 59 57 -7 c65 -8 62 8 -3
22 -38 8 -40 10 -37 40 4 39 1 40 -20 2z"/>
<path d="M493 4451 c-50 -23 -74 -57 -80 -114 -14 -122 106 -207 291 -207 58
0 93 6 123 20 72 32 103 113 69 178 -55 106 -285 176 -403 123z m161 -12 c113
-21 215 -88 232 -153 9 -35 -21 -83 -66 -106 -89 -45 -280 -13 -356 61 -28 27
-34 40 -34 74 0 67 58 115 161 134 3 1 31 -4 63 -10z"/>
<path d="M642 4323 c-22 -9 -34 -41 -22 -63 20 -37 100 -15 100 28 0 29 -44
49 -78 35z"/>
<path d="M1333 4464 c-27 -12 -11 -22 31 -22 29 1 56 -7 81 -22 42 -26 45 -8
4 23 -26 19 -94 31 -116 21z"/>
<path d="M1241 4331 c-74 -19 -136 -93 -127 -151 10 -61 49 -123 97 -152 165
-101 409 -58 435 77 20 111 -122 222 -294 231 -42 2 -92 -1 -111 -5z m227 -56
c95 -29 166 -117 143 -176 -23 -59 -85 -91 -181 -92 -156 0 -290 78 -290 170
0 62 19 84 100 117 26 10 173 -2 228 -19z"/>
<path d="M1339 4171 c-21 -16 -22 -22 -11 -45 9 -20 19 -26 45 -26 39 0 57 15
57 47 0 41 -53 55 -91 24z"/>
<path d="M943 4280 c-13 -5 -23 -11 -23 -12 0 -2 22 -3 50 -4 31 0 56 -7 68
-17 23 -21 42 -22 42 -2 0 29 -94 54 -137 35z"/>
<path d="M917 4079 c-9 -5 -24 -24 -33 -41 -12 -24 -13 -35 -4 -58 16 -38 71
-65 103 -48 27 14 20 28 -13 28 -31 0 -70 30 -70 54 0 8 12 28 26 45 26 31 23
39 -9 20z"/>
<path d="M566 3925 c-8 -21 10 -108 33 -160 85 -193 377 -278 600 -174 67 31
179 135 200 187 7 15 22 32 34 37 41 18 26 38 -31 41 -50 2 -52 1 -46 -20 13
-55 -73 -169 -165 -215 -94 -48 -288 -47 -397 3 -108 49 -170 130 -195 254
-13 62 -22 75 -33 47z"/>
<path d="M1846 3734 c-3 -9 -6 -41 -6 -72 0 -106 99 -259 195 -303 48 -22 114
-24 141 -4 18 14 17 14 -12 15 -152 1 -300 159 -298 317 0 61 -7 80 -20 47z"/>
<path d="M1733 3605 c-10 -27 4 -93 26 -121 28 -35 51 -51 80 -55 36 -6 36 16
1 31 -49 20 -80 65 -80 116 0 43 -15 59 -27 29z"/>
<path d="M1650 3458 c0 -67 111 -146 184 -133 54 11 52 22 -6 29 -85 12 -142
48 -153 97 -8 34 -25 39 -25 7z"/>
<path d="M2994 3171 c-17 -10 -41 -35 -53 -55 -26 -41 -28 -42 -52 -20 -34 31
-160 60 -159 37 1 -12 90 -109 90 -98 0 6 -9 25 -20 43 -17 27 -17 32 -4 32
23 0 55 -19 91 -53 18 -17 34 -29 36 -26 2 2 16 25 31 52 15 26 28 47 29 47 1
0 2 -27 2 -60 0 -78 18 -82 26 -5 3 33 11 70 17 82 25 45 14 53 -34 24z"/>
<path d="M3179 3120 c-55 -9 -113 -35 -131 -58 -11 -14 -10 -15 7 -8 79 33
144 46 221 46 46 0 84 -3 84 -7 0 -5 -16 -18 -35 -31 -19 -12 -35 -31 -35 -41
0 -16 11 -19 73 -25 119 -11 231 -50 284 -99 27 -24 21 -37 -17 -37 -64 0 -81
-29 -30 -50 30 -12 70 -69 85 -117 6 -20 3 -23 -24 -23 -16 0 -32 -4 -35 -9
-3 -4 12 -43 34 -85 27 -51 40 -90 39 -114 0 -32 -1 -34 -9 -14 -5 12 -14 22
-19 22 -5 0 -15 17 -21 38 -24 74 -71 162 -87 162 -10 0 -13 -6 -10 -17 44
-134 57 -224 41 -267 -5 -14 -10 -13 -30 9 -25 27 -70 33 -105 15 -32 -18 -21
-28 25 -23 39 5 46 2 61 -20 15 -23 15 -28 0 -56 -17 -35 -53 -48 -83 -32 -27
14 -32 14 -32 -4 0 -18 31 -35 64 -35 13 0 38 11 54 25 30 25 31 25 37 5 3
-11 10 -20 15 -20 9 0 38 47 52 85 5 12 6 3 3 -21 -6 -49 -31 -114 -45 -114
-6 0 -10 6 -10 14 0 33 -24 26 -61 -15 -37 -43 -49 -47 -29 -9 17 32 -9 35
-35 4 l-24 -28 6 37 c3 20 3 37 0 37 -3 0 -27 -32 -52 -71 -103 -154 -278
-227 -525 -216 -249 10 -426 114 -517 303 -59 123 -55 242 12 397 35 83 40
115 8 58 -10 -18 -24 -40 -31 -49 -11 -15 -11 -13 -6 13 27 138 60 187 151
228 77 34 205 50 252 31 43 -18 49 -12 15 15 -29 23 -140 61 -183 62 l-26 1
29 10 c22 8 50 6 112 -6 96 -19 104 -19 104 -7 0 5 -17 16 -37 24 -92 36 -215
28 -285 -18 -49 -33 -49 -48 0 -38 46 10 157 7 178 -5 10 -6 -10 -12 -62 -20
-172 -27 -284 -137 -284 -281 0 -39 4 -60 10 -56 14 8 13 -3 -6 -77 -12 -45
-15 -88 -11 -151 4 -75 10 -99 41 -161 68 -138 231 -256 406 -292 229 -47 455
1 614 131 30 24 58 40 61 35 3 -5 -5 -16 -17 -24 -19 -13 -20 -16 -5 -16 37 0
85 29 129 80 l46 52 7 -31 c4 -18 12 -30 18 -28 20 6 67 109 78 172 6 32 19
70 30 83 28 36 24 96 -11 170 -17 35 -30 68 -30 73 0 5 14 6 31 2 31 -6 31 -6
24 28 -10 46 -48 120 -74 143 -27 25 -18 36 29 36 21 0 41 4 45 9 8 14 -53 74
-108 106 -52 30 -171 65 -221 65 -59 0 -64 16 -13 41 26 13 47 26 47 31 0 22
-176 42 -251 28z"/>
<path d="M3083 2988 c-24 -5 -43 -12 -43 -16 0 -4 56 -8 125 -9 69 -1 125 1
125 3 0 3 -16 12 -35 20 -38 16 -108 17 -172 2z"/>
<path d="M3170 2921 c0 -6 17 -11 40 -11 59 0 151 -51 214 -117 55 -57 80 -59
52 -4 -35 67 -147 131 -243 139 -43 3 -63 1 -63 -7z"/>
<path d="M4287 2899 c-93 -26 -115 -39 -162 -94 -22 -26 -63 -62 -91 -80 -88
-57 -154 -156 -170 -254 -6 -38 -4 -46 14 -60 21 -15 21 -18 7 -63 -69 -229
24 -437 244 -547 97 -49 121 -54 274 -67 84 -7 88 -8 83 -28 -3 -12 -9 -53
-12 -93 l-7 -72 -116 -3 -116 -3 123 -13 c68 -7 126 -11 130 -8 3 3 6 51 8
107 2 56 5 103 7 105 2 2 35 12 74 22 38 11 104 36 147 58 52 26 79 35 84 28
21 -33 122 -58 137 -34 3 6 26 2 56 -10 56 -23 119 -26 119 -8 0 7 -12 22 -27
35 l-28 22 28 1 27 0 0 139 c0 114 -3 140 -15 145 -8 3 -15 10 -15 16 0 5 7
10 15 10 12 0 15 16 15 85 0 71 -2 83 -15 79 -9 -4 -41 -3 -72 1 -43 5 -63 14
-85 36 -16 16 -27 33 -24 38 3 5 32 -1 63 -14 32 -12 75 -25 96 -28 l37 -6 0
95 c0 93 -1 97 -40 164 -80 137 -247 252 -434 300 -106 27 -264 26 -359 -1z
m262 -29 c53 -7 95 -21 153 -50 83 -43 178 -99 166 -100 -4 0 -44 14 -90 31
-69 27 -101 33 -195 37 -107 4 -172 -2 -159 -15 3 -4 32 -6 64 -4 76 3 219
-24 294 -54 115 -47 178 -102 178 -155 0 -27 -10 -25 -60 11 -24 17 -59 38
-79 47 -50 21 -183 19 -301 -6 -145 -31 -174 -34 -219 -22 -65 17 -80 70 -36
134 27 39 22 45 -14 20 -48 -34 -58 -114 -20 -160 9 -11 9 -14 -1 -14 -7 0
-30 18 -52 39 -36 37 -39 43 -36 88 3 44 6 50 40 68 43 23 47 32 17 37 -36 5
56 51 131 64 82 15 126 16 219 4z m-525 -228 c14 -24 -68 -115 -87 -96 -11 11
13 59 41 81 29 25 38 27 46 15z m51 -52 c12 -37 59 -83 110 -106 70 -33 145
-31 288 6 137 36 173 37 255 9 57 -19 66 -27 100 -78 20 -31 44 -76 54 -100
18 -47 45 -81 63 -81 6 0 16 -5 23 -12 9 -9 6 -15 -16 -24 l-27 -12 37 -1 c46
-1 66 -30 49 -67 -11 -24 -19 -27 -56 -25 -16 1 -20 -5 -21 -32 -1 -70 -118
-199 -233 -257 -96 -48 -279 -64 -413 -35 -83 17 -221 80 -270 124 -82 72
-128 183 -128 310 0 87 18 164 51 218 65 110 113 183 120 183 4 0 11 -9 14
-20z"/>
<path d="M4064 2326 c-11 -28 1 -51 25 -51 28 0 47 25 38 49 -8 20 -56 21 -63
2z"/>
<path d="M4547 2294 c-13 -13 -7 -52 9 -58 25 -9 56 12 52 37 -3 22 -45 36
-61 21z"/>
<path d="M4246 2175 c-6 -18 5 -20 21 -4 9 9 18 8 38 -5 30 -20 44 -14 25 9
-16 20 -76 20 -84 0z"/>
<path d="M4070 2085 c0 -62 67 -147 147 -186 62 -30 175 -33 245 -6 48 18 119
87 149 143 23 44 22 49 -11 49 -26 0 -30 -3 -26 -20 11 -44 -64 -123 -141
-151 -59 -21 -159 -18 -209 6 -57 28 -120 99 -134 149 -12 47 -20 53 -20 16z"/>
<path d="M2927 2894 c-3 -5 0 -25 7 -44 15 -47 72 -77 175 -92 68 -10 89 -10
123 2 23 8 43 21 46 27 3 10 -25 12 -120 11 -143 -3 -170 6 -204 66 -12 21
-24 34 -27 30z"/>
<path d="M2713 2851 c-40 -48 -87 -61 -217 -61 -77 0 -96 -3 -96 -15 0 -37
189 -31 276 9 54 25 78 53 72 86 -2 16 -8 13 -35 -19z"/>
<path d="M2825 2880 c-13 -20 7 -72 41 -105 35 -35 101 -54 143 -40 34 10 24
22 -24 28 -24 4 -60 13 -80 21 -29 12 -37 23 -47 60 -12 46 -21 55 -33 36z"/>
<path d="M2508 2863 c-80 -4 -98 -16 -52 -33 39 -15 64 -12 119 14 28 14 41
24 30 23 -11 0 -55 -3 -97 -4z"/>
<path d="M3263 2729 c48 -36 69 -93 75 -197 3 -51 9 -95 15 -99 6 -4 27 12 48
36 39 44 42 43 53 -1 3 -16 11 -28 18 -28 13 0 3 101 -13 132 -8 15 -13 17
-25 7 -8 -6 -14 -17 -14 -24 0 -7 -10 -25 -22 -40 l-22 -29 -13 83 c-15 97
-33 135 -76 161 -42 26 -59 25 -24 -1z"/>
<path d="M3479 2647 c15 -17 28 -48 35 -88 6 -37 17 -64 25 -67 11 -4 13 5 8
48 -7 54 -45 118 -78 128 -8 3 -4 -7 10 -21z"/>
<path d="M2647 2602 c-10 -10 -17 -24 -17 -30 0 -17 38 -34 60 -27 26 8 26 51
1 65 -25 13 -25 13 -44 -8z"/>
<path d="M3090 2526 c-19 -23 -8 -61 18 -64 46 -7 72 47 33 68 -26 14 -36 13
-51 -4z"/>
<path d="M20 2452 c-13 -10 -21 -24 -19 -31 3 -7 15 0 34 19 31 33 21 41 -15
12z"/>
<path d="M2773 2403 c-22 -8 -14 -26 9 -20 11 3 34 -1 49 -9 35 -18 39 -18 39
1 0 27 -59 44 -97 28z"/>
<path d="M2510 2351 c0 -52 52 -152 104 -199 149 -137 367 -131 511 13 59 60
95 103 95 115 0 12 -61 41 -71 34 -5 -3 -4 -14 1 -25 9 -15 5 -28 -20 -64 -62
-89 -156 -136 -276 -137 -152 0 -289 106 -312 244 -9 50 -32 64 -32 19z"/>
<path d="M1962 2354 c-23 -16 -30 -58 -11 -70 6 -4 27 -10 46 -14 45 -11 40
11 -6 22 -40 11 -39 37 2 51 40 13 75 -5 93 -48 8 -19 19 -35 24 -35 21 0 9
49 -19 79 -23 24 -37 31 -68 31 -21 0 -49 -7 -61 -16z"/>
<path d="M2066 2204 c6 -58 -5 -104 -25 -104 -5 0 -12 28 -17 63 l-8 62 -5
-61 c-6 -57 -22 -94 -42 -94 -5 0 -4 11 2 24 13 27 4 112 -12 122 -7 4 -8 -9
-4 -37 8 -54 -7 -96 -39 -111 -37 -16 -21 -29 27 -22 68 9 123 33 137 58 15
29 9 131 -8 148 -9 9 -11 -2 -6 -48z"/>
<path d="M2120 2215 c0 -5 13 -33 30 -61 34 -61 91 -112 178 -161 34 -19 62
-39 62 -43 0 -19 -20 -60 -29 -60 -16 0 -142 81 -196 125 -68 56 -84 65 -57
30 31 -40 86 -85 158 -132 33 -21 73 -51 88 -66 34 -34 141 -67 220 -67 72 1
59 14 -24 25 -59 8 -156 40 -165 56 -4 5 1 19 9 31 9 12 16 31 16 41 0 12 5
17 14 14 54 -21 135 -28 177 -16 l44 13 -93 8 c-113 10 -180 34 -277 100 -73
49 -106 84 -138 143 -9 17 -16 26 -17 20z"/>
<path d="M3100 1921 c0 -8 138 -105 162 -113 10 -4 8 -15 -9 -50 -13 -25 -23
-51 -23 -58 0 -8 -9 -10 -27 -6 -35 8 -115 17 -88 10 41 -11 81 -28 104 -46
24 -18 46 -15 38 6 -3 7 -2 19 3 26 9 15 77 2 178 -36 34 -13 62 -21 62 -19 0
10 -102 55 -159 71 -63 18 -68 23 -51 55 14 25 16 25 102 -15 78 -36 140 -56
173 -56 11 1 -11 13 -50 29 -84 34 -157 69 -246 119 -132 74 -169 92 -169 83z"/>
<path d="M2684 1888 c14 -71 107 -128 185 -113 42 8 111 73 111 104 0 30 -17
26 -35 -9 -21 -41 -56 -62 -107 -62 -60 -1 -103 24 -124 72 -21 48 -39 53 -30
8z"/>
<path d="M2562 1693 c-22 -37 -61 -88 -86 -112 l-46 -45 22 -23 c18 -20 20
-27 11 -41 -30 -43 -85 -145 -98 -181 -16 -47 -10 -55 50 -64 22 -3 95 -34
163 -68 68 -34 125 -60 127 -57 10 10 45 102 45 120 0 39 23 11 46 -56 13 -38
28 -74 34 -80 7 -7 43 1 123 27 61 20 126 39 142 43 65 13 125 36 125 48 0 7
-20 53 -45 101 l-45 89 23 25 c12 14 25 27 29 29 5 2 -3 22 -16 45 -13 23 -34
72 -46 110 -12 37 -26 67 -31 67 -5 0 -5 -10 0 -22 4 -13 12 -45 16 -73 4 -27
15 -66 26 -87 l19 -37 -33 -19 c-51 -31 -104 -42 -213 -42 -67 0 -126 6 -176
19 -95 25 -248 101 -248 125 0 3 19 30 43 59 40 49 94 154 84 163 -2 3 -23
-26 -45 -63z m-21 -382 c-34 -55 -46 -68 -62 -64 -24 7 -24 7 9 73 22 44 33
56 57 61 17 3 32 4 34 2 2 -1 -15 -34 -38 -72z m99 17 c0 -16 -11 -51 -25 -78
-24 -48 -26 -49 -55 -39 -16 6 -30 13 -30 15 0 2 18 31 40 65 22 34 40 69 40
77 0 12 3 12 15 2 8 -7 15 -26 15 -42z m302 -10 c8 -7 25 -42 38 -76 19 -54
21 -65 9 -73 -17 -11 -112 -39 -131 -39 -31 0 -51 137 -24 159 12 10 17 2 32
-48 16 -59 37 -91 51 -77 7 6 -15 104 -32 149 -6 13 -2 17 17 17 13 0 31 -6
40 -12z m-511 -35 c-12 -20 -14 -14 -5 12 4 9 9 14 11 11 3 -2 0 -13 -6 -23z"/>
<path d="M4146 1745 c-25 -19 -133 -42 -232 -50 -95 -8 -135 -25 -59 -25 111
0 292 40 310 70 11 18 2 20 -19 5z"/>
<path d="M2703 1726 c33 -30 114 -56 174 -56 40 0 113 22 113 34 0 3 -48 3
-107 0 -103 -6 -110 -5 -158 20 l-50 26 28 -24z"/>
<path d="M4212 1700 c-23 -81 -32 -102 -68 -167 -40 -73 -133 -176 -205 -229
-27 -20 -49 -41 -49 -48 0 -9 -17 -12 -57 -10 -74 4 -91 -5 -77 -43 7 -22 16
-29 44 -31 46 -4 53 -13 39 -46 -15 -32 -2 -46 42 -46 17 0 30 -8 39 -25 11
-20 21 -25 52 -25 34 0 40 -4 49 -30 10 -28 15 -30 59 -30 41 0 50 -3 55 -21
6 -19 12 -21 52 -15 36 5 50 2 73 -15 22 -17 36 -20 64 -15 23 4 45 2 63 -7
32 -16 51 -12 74 16 16 20 17 20 54 3 36 -18 38 -18 66 3 39 29 50 27 100 -20
84 -78 166 -91 263 -39 l57 29 -8 -37 c-10 -47 -7 -107 7 -132 6 -11 25 -28
43 -37 l32 -18 -40 -6 c-35 -5 -33 -6 23 -8 35 0 62 3 62 9 0 6 -6 10 -12 10
-10 0 -10 2 0 8 9 7 12 43 10 148 -3 132 -4 139 -23 137 -11 -1 -23 3 -27 10
-7 11 -10 11 -131 -33 -47 -17 -65 -19 -95 -11 -34 9 -35 9 -18 -4 28 -21 96
-19 158 5 28 11 54 18 56 16 5 -6 -127 -83 -166 -97 -43 -15 -88 -5 -145 31
l-47 29 28 31 c26 28 31 30 76 24 52 -8 66 1 66 44 0 19 5 22 45 22 41 0 47 3
69 39 17 26 34 40 55 44 22 5 32 14 37 33 9 37 -16 54 -80 54 -47 0 -57 5
-114 51 -117 97 -198 227 -235 382 -19 81 -22 87 -25 53 -10 -118 69 -279 199
-409 66 -65 85 -89 73 -94 -8 -3 -26 5 -41 18 -24 22 -26 22 -21 4 3 -11 9
-28 13 -37 8 -21 -50 -61 -77 -52 -12 3 -18 0 -18 -9 0 -19 -60 -41 -74 -27
-15 15 -27 12 -24 -7 2 -13 -8 -20 -41 -27 -38 -8 -46 -7 -58 10 -13 18 -14
18 -19 -4 -5 -17 -14 -22 -40 -22 -24 0 -34 5 -34 15 0 8 -4 15 -10 15 -5 0
-10 -7 -10 -15 0 -11 -11 -15 -36 -15 -27 0 -37 5 -41 20 -6 23 -23 27 -23 5
0 -18 0 -18 -56 -4 -26 7 -44 17 -44 25 0 10 -7 13 -23 9 -12 -4 -35 -1 -51 4
-21 9 -26 15 -21 31 8 24 -3 26 -20 3 -12 -15 -15 -15 -45 4 -20 13 -28 23
-21 27 6 4 11 14 11 23 0 14 -3 14 -20 -2 -17 -15 -24 -16 -45 -7 -24 11 -35
32 -16 32 11 0 24 31 16 38 -3 3 -14 -3 -26 -13 -15 -14 -24 -17 -36 -9 -30
19 -25 31 26 64 136 87 292 332 279 437 -3 25 -5 23 -16 -17z m-351 -480 c6 0
31 -19 57 -43 63 -57 118 -93 171 -112 24 -8 50 -20 56 -25 10 -8 124 -35 294
-68 30 -6 32 -9 18 -21 -20 -16 -162 -6 -213 15 -18 8 -45 14 -60 14 -34 0
-195 77 -212 102 -7 10 -23 18 -36 18 -12 0 -31 6 -41 14 -17 12 -17 16 -5 31
17 20 6 29 -52 45 -21 6 -38 15 -38 20 0 11 22 19 38 14 8 -2 18 -4 23 -4z
m1241 -407 c6 -27 -10 -76 -29 -90 -37 -28 -75 61 -41 95 19 19 66 15 70 -5z"/>
<path d="M4680 1718 c18 -38 91 -73 202 -97 131 -28 175 -27 212 5 15 14 26
28 22 31 -3 4 -16 -3 -29 -15 -22 -20 -27 -21 -112 -12 -177 20 -236 38 -282
88 l-25 27 12 -27z"/>
<path d="M3639 1698 c-16 -18 -29 -42 -29 -54 0 -28 24 -47 49 -39 26 8 63 54
54 68 -3 6 -14 -1 -25 -16 -17 -23 -58 -38 -58 -22 0 19 33 65 51 70 30 10 67
-2 79 -25 9 -17 8 -19 -7 -13 -15 5 -14 2 5 -19 31 -34 29 -50 -5 -42 l-28 7
28 -22 c15 -12 27 -29 27 -38 0 -12 -6 -11 -34 6 -46 29 -58 26 -18 -5 17 -14
32 -32 32 -40 0 -16 -16 -19 -25 -4 -3 6 -12 10 -20 10 -8 0 -34 14 -58 30
-25 17 -57 30 -73 30 -15 0 -35 6 -43 14 -14 13 -16 9 -13 -40 3 -47 7 -55 27
-60 13 -3 26 -12 29 -20 3 -8 11 -14 18 -14 8 0 21 -9 31 -20 9 -11 23 -20 30
-20 26 0 108 60 118 87 19 48 22 99 8 124 -7 13 -12 34 -10 46 2 16 -6 26 -28
37 -47 25 -78 20 -112 -16z m-34 -138 c11 -18 -15 -50 -40 -50 -18 0 -25 5
-25 20 0 29 51 53 65 30z m55 -45 c0 -17 -47 -51 -57 -41 -3 3 0 17 7 31 14
27 50 34 50 10z m54 -42 c-16 -26 -39 -37 -60 -29 -17 7 -16 10 15 38 24 22
36 27 44 19 8 -8 8 -16 1 -28z"/>
<path d="M4255 1683 c-4 -20 -15 -54 -26 -75 -21 -40 -25 -68 -10 -68 11 0 45
89 55 143 4 21 3 37 -2 37 -6 0 -13 -17 -17 -37z"/>
<path d="M4334 1709 c-3 -6 0 -17 7 -25 18 -17 44 -2 36 20 -7 18 -33 21 -43
5z"/>
<path d="M2648 1653 c16 -28 80 -70 131 -83 64 -17 160 -15 209 5 43 18 60 43
20 30 -136 -41 -234 -30 -326 36 -34 24 -42 27 -34 12z"/>
<path d="M4045 1629 c-55 -10 -122 -18 -150 -19 -42 0 -47 -2 -31 -12 30 -17
195 -4 250 21 40 17 60 33 39 30 -5 -1 -53 -10 -108 -20z"/>
<path d="M4670 1618 c62 -52 205 -98 307 -98 61 0 63 -1 77 -32 8 -18 26 -48
40 -67 l26 -35 0 31 c0 17 -5 33 -11 35 -9 3 -9 9 0 25 15 28 14 46 -1 37 -10
-6 -10 -4 0 7 21 23 13 32 -13 15 -22 -14 -25 -15 -25 -1 0 8 9 24 20 35 15
15 17 20 5 20 -8 0 -22 -12 -32 -26 -16 -25 -20 -26 -82 -21 -81 7 -210 41
-273 73 -58 29 -71 30 -38 2z"/>
<path d="M4325 1610 c-8 -14 3 -30 21 -30 8 0 14 9 14 20 0 21 -24 28 -35 10z"/>
<path d="M2590 1561 c0 -13 57 -59 102 -82 55 -28 181 -42 262 -29 77 12 116
26 116 40 0 13 -2 12 -75 -5 -76 -18 -188 -19 -246 -2 -25 8 -71 30 -102 50
-31 20 -57 33 -57 28z"/>
<path d="M4082 1367 c-23 -23 -42 -48 -42 -54 0 -34 93 -102 140 -103 15 0 60
99 60 133 0 15 -84 67 -108 67 -4 0 -27 -19 -50 -43z m127 -10 c10 -13 7 -16
-18 -22 -40 -8 -51 0 -51 36 0 29 0 29 28 15 16 -8 34 -21 41 -29z m-79 -18
c0 -30 0 -30 45 -23 25 3 45 4 45 0 0 -3 -8 -21 -17 -41 -13 -27 -23 -35 -43
-35 -26 0 -99 46 -100 63 0 15 52 77 61 71 5 -3 9 -19 9 -35z"/>
<path d="M4575 1370 c-38 -19 -29 -20 33 -4 24 7 29 -9 12 -36 -7 -12 -14 -12
-43 -2 -50 18 -56 15 -14 -8 50 -27 63 -25 76 10 14 41 27 38 52 -12 20 -40
20 -42 3 -55 -29 -21 -126 -55 -135 -46 -4 4 -14 31 -23 58 l-16 50 6 -50 c6
-54 18 -75 41 -75 33 0 125 33 149 53 l26 22 -38 58 c-42 65 -61 70 -129 37z"/>
<path d="M571 1275 c-23 -199 -45 -435 -39 -435 21 0 53 267 46 390 -2 36 -5
56 -7 45z"/>
<path d="M726 1228 c-13 -29 -42 -93 -65 -141 -39 -83 -71 -186 -71 -231 0
-34 17 -5 35 59 9 33 37 112 62 175 57 144 73 190 67 190 -2 0 -15 -24 -28
-52z"/>
<path d="M2397 1138 c-47 -72 -159 -289 -152 -296 3 -3 12 3 20 14 14 20 174
334 170 334 -2 0 -19 -24 -38 -52z"/>
<path d="M3402 1158 c5 -14 25 -25 95 -53 77 -32 104 -124 53 -175 -18 -18
-23 -19 -48 -6 -55 29 -92 94 -93 168 0 36 -2 40 -10 23 -15 -29 -76 -73 -120
-86 -53 -16 -88 -4 -136 47 -47 49 -54 48 -22 -2 46 -74 129 -94 213 -49 53
28 56 29 56 14 0 -11 -44 -51 -89 -81 -57 -39 -139 -12 -228 75 -62 60 -71 50
-13 -16 43 -48 145 -107 187 -107 30 0 92 31 117 59 27 29 37 26 65 -19 14
-22 40 -47 59 -56 32 -15 38 -15 68 -1 40 20 60 75 49 134 -12 68 -111 143
-188 143 -11 0 -17 -6 -15 -12z"/>
<path d="M2432 1013 c-114 -119 -192 -217 -192 -241 0 -24 39 16 147 150 51
64 114 135 140 157 33 30 41 41 27 41 -10 0 -63 -47 -122 -107z"/>
<path d="M3987 951 c-9 -16 -46 -55 -82 -86 -61 -54 -77 -75 -56 -75 30 0 167
156 159 180 -2 6 -11 -3 -21 -19z"/>
<path d="M13 953 c-16 -6 -17 -40 -2 -45 9 -3 9 -13 0 -41 -7 -20 -11 -47 -9
-59 2 -17 10 -5 26 41 33 96 29 122 -15 104z"/>
<path d="M4048 899 c-18 -23 -64 -64 -103 -92 -72 -52 -76 -73 -7 -38 55 28
182 171 153 171 -6 0 -25 -18 -43 -41z"/>
<path d="M1974 909 c-28 -14 -54 -61 -54 -97 0 -37 38 -84 80 -102 17 -7 28
-15 25 -18 -3 -3 -38 -9 -78 -12 -60 -6 -48 -7 73 -9 80 0 206 -6 280 -11 78
-6 148 -6 165 -1 28 8 26 9 -25 14 -30 4 -112 9 -182 13 -71 3 -128 9 -128 13
1 3 19 15 42 26 43 20 62 45 35 45 -8 0 -36 -10 -62 -21 -64 -28 -125 -22
-166 17 -69 66 -4 142 97 115 22 -6 61 -24 88 -41 57 -36 67 -34 29 5 -59 59
-165 90 -219 64z"/>
<path d="M278 861 c-48 -16 -98 -52 -104 -76 -16 -66 20 -100 97 -90 54 6 170
44 217 71 l33 19 19 -25 c11 -14 24 -38 28 -54 14 -51 28 -39 42 34 15 79 9
97 -17 52 l-18 -31 -27 25 -26 26 -99 -37 c-113 -43 -198 -52 -217 -22 -13 21
-2 41 38 71 24 18 42 21 141 21 71 0 110 4 105 9 -13 13 -178 18 -212 7z"/>
<path d="M3640 850 c-39 -39 -15 -90 55 -115 46 -16 42 -17 -80 -17 l-90 0 65
-8 c108 -14 400 -30 522 -29 l113 2 -80 8 c-44 5 -134 12 -200 15 -86 5 -113
9 -96 15 19 8 21 12 11 24 -7 8 -20 30 -29 48 -32 63 -149 99 -191 57z m105
-24 c16 -12 17 -16 6 -30 -26 -31 -102 -8 -88 28 8 20 56 21 82 2z"/>
<path d="M3388 723 c12 -2 30 -2 40 0 9 3 -1 5 -23 4 -22 0 -30 -2 -17 -4z"/>
<path d="M74 675 c-14 -14 -36 -25 -49 -25 -14 0 -25 -4 -25 -10 0 -5 9 -10
20 -10 16 0 20 -7 20 -30 0 -35 16 -40 26 -7 8 28 21 36 45 30 14 -4 18 -11
14 -24 -8 -25 9 -24 26 1 14 20 16 20 139 4 138 -17 450 -11 450 9 0 7 -56 8
-167 4 -116 -3 -197 -1 -266 9 -54 8 -124 15 -154 16 -61 3 -74 11 -43 30 11
7 20 16 20 20 0 17 -32 7 -56 -17z"/>
<path d="M914 645 c-16 -39 -19 -101 -5 -110 6 -3 13 11 16 32 3 21 7 47 9 58
2 11 7 28 11 38 4 10 3 17 -4 17 -7 0 -19 -16 -27 -35z"/>
<path d="M3148 667 c24 -11 54 -61 66 -109 8 -35 26 -37 26 -4 0 61 -47 126
-89 125 l-26 0 23 -12z"/>
<path d="M3314 639 c-14 -15 -19 -36 -19 -77 0 -76 18 -83 26 -10 4 32 14 69
23 83 21 32 -1 35 -30 4z"/>
<path d="M770 632 c0 -5 11 -17 25 -26 14 -9 34 -35 46 -57 14 -29 24 -38 31
-31 14 14 -5 62 -35 90 -25 23 -67 38 -67 24z"/>
<path d="M1355 631 c-53 -4 19 -8 210 -13 285 -7 345 -4 345 13 0 10 -420 9
-555 0z"/>
<path d="M3431 633 c-18 -7 -61 -102 -54 -120 10 -25 26 -8 40 40 8 26 23 53
33 60 34 20 20 35 -19 20z"/>
<path d="M2423 622 c-28 -4 -55 -11 -60 -16 -4 -4 16 -5 46 -1 79 11 324 8
406 -4 84 -13 215 -14 233 -2 9 5 -10 10 -50 15 -98 10 -517 15 -575 8z"/>
<path d="M3127 604 c-6 -7 35 -73 46 -74 10 0 9 28 -3 49 -10 20 -34 33 -43
25z"/>
<path d="M4115 603 c-126 -8 -67 -18 108 -19 100 0 233 -6 295 -13 116 -13
203 -8 184 11 -19 19 -400 32 -587 21z"/>
<path d="M962 577 c-23 -24 -30 -57 -12 -57 5 0 15 10 21 23 7 12 18 26 25 30
8 4 14 12 14 17 0 18 -26 10 -48 -13z"/>
<path d="M3486 568 c-17 -24 -22 -78 -7 -78 5 0 15 15 21 34 6 19 17 37 25 40
22 8 18 26 -4 26 -11 0 -27 -10 -35 -22z"/>
<path d="M1026 554 c-9 -8 -16 -27 -16 -42 1 -26 1 -26 15 -7 8 11 19 25 25
32 25 29 3 45 -24 17z"/>
<path d="M2105 541 l-40 -7 40 -5 c56 -8 304 2 311 12 6 10 -250 10 -311 0z"/>
<path d="M3690 540 c0 -6 31 -10 74 -10 41 0 78 5 81 10 4 6 -23 10 -74 10
-47 0 -81 -4 -81 -10z"/>
<path d="M2560 530 c-21 -7 -22 -8 -5 -9 11 -1 45 -4 75 -7 39 -5 52 -3 45 4
-14 15 -85 23 -115 12z"/>
<path d="M5035 521 c-31 -4 -45 -9 -37 -14 15 -10 122 2 122 14 0 9 -5 9 -85
0z"/>
<path d="M1160 481 c0 -8 141 -21 242 -21 58 0 77 12 36 24 -35 9 -278 7 -278
-3z"/>
<path d="M4027 484 c-9 -3 -15 -10 -12 -15 8 -12 172 -12 180 1 4 6 -8 10 -28
10 -19 0 -54 2 -78 4 -24 3 -52 2 -62 0z"/>
<path d="M730 440 c-10 -7 7 -10 58 -10 41 0 72 4 72 10 0 13 -110 13 -130 0z"/>
<path d="M4608 300 c20 -18 32 -51 47 -122 6 -32 21 -37 28 -10 4 16 5 16 6 0
0 -10 5 -18 11 -18 11 0 16 20 25 99 5 48 4 53 -9 42 -8 -7 -18 -33 -22 -58
l-7 -45 -17 53 c-18 53 -41 79 -69 79 -11 0 -9 -5 7 -20z"/>
<path d="M1863 261 c13 -16 29 -50 36 -74 12 -50 28 -67 37 -42 8 21 -34 112
-60 131 -33 23 -39 16 -13 -15z"/>
<path d="M1962 258 c-14 -14 -16 -108 -2 -108 6 0 10 12 10 28 0 15 4 42 9 60
10 33 4 41 -17 20z"/>
<path d="M4771 244 c-22 -28 -38 -91 -26 -102 4 -4 10 -1 12 6 3 7 17 38 33
68 29 58 18 75 -19 28z"/>
<path d="M4495 227 c11 -7 34 -27 52 -44 36 -37 43 -40 43 -17 0 25 -59 74
-89 73 -25 0 -25 -1 -6 -12z"/>
<path d="M4887 222 c-21 -23 -34 -82 -18 -82 6 0 17 16 25 35 8 19 22 38 31
41 8 3 15 10 15 15 0 16 -36 10 -53 -9z"/>
<path d="M1696 207 c-9 -13 -19 -37 -22 -55 -5 -25 -3 -32 10 -32 10 0 16 8
16 23 0 12 7 34 14 49 18 34 2 47 -18 15z"/>
<path d="M2081 204 c-21 -26 -28 -64 -13 -64 12 0 52 79 43 85 -5 3 -19 -7
-30 -21z"/>
<path d="M1826 165 c38 -34 54 -42 54 -28 0 16 -55 63 -74 63 -16 0 -12 -7 20
-35z"/>
<path d="M1565 150 c16 -16 33 -30 37 -30 5 0 2 14 -7 30 -10 19 -23 30 -37
30 -21 0 -20 -1 7 -30z"/>
<path d="M2163 158 c-20 -25 -34 -58 -25 -58 6 0 22 16 36 35 19 25 23 35 13
35 -8 0 -19 -6 -24 -12z"/>
<path d="M1504 125 c27 -21 53 -20 36 0 -7 8 -22 15 -34 15 -21 -1 -21 -1 -2
-15z"/>
</g>
</svg>
