<?xml version="1.0" standalone="no"?>
<!DOCTYPE svg PUBLIC "-//W3C//DTD SVG 20010904//EN"
 "http://www.w3.org/TR/2001/REC-SVG-20010904/DTD/svg10.dtd">
<svg version="1.0" xmlns="http://www.w3.org/2000/svg"
 width="270.000000pt" height="270.000000pt" viewBox="0 0 270.000000 270.000000"
 preserveAspectRatio="xMidYMid meet">
<metadata>
Created by potrace 1.14, written by Peter Selinger 2001-2017
</metadata>
<g transform="translate(0.000000,270.000000) scale(0.100000,-0.100000)"
fill="#000000" stroke="none">
<path d="M580 2690 c-17 -6 -9 -7 25 -4 65 7 181 -18 262 -56 114 -53 228
-194 249 -310 7 -34 7 -35 -13 -17 -33 29 -88 17 -81 -18 4 -25 30 -33 26 -9
-2 13 3 19 16 19 25 0 40 -26 33 -57 -16 -63 -80 -36 -170 71 -83 100 -126
121 -256 130 -130 10 -204 44 -240 111 -23 44 -23 45 -17 10 8 -46 36 -73 108
-105 45 -20 86 -29 153 -34 124 -10 166 -31 244 -126 94 -115 143 -135 188
-79 l23 29 -6 -40 c-3 -22 -14 -85 -25 -139 -20 -101 -18 -142 8 -183 17 -25
32 -32 98 -43 44 -7 53 -5 73 13 31 29 27 38 -9 20 -46 -23 -117 -12 -146 22
-29 33 -29 72 -3 196 11 52 20 120 20 152 0 146 -99 307 -240 390 -90 52 -249
80 -320 57z"/>
<path d="M273 2641 c-73 -25 -127 -63 -168 -119 -41 -55 -77 -145 -74 -181 2
-14 -3 -37 -10 -49 -18 -33 -9 -36 19 -7 30 32 90 36 90 5 0 -16 -7 -20 -34
-20 -40 0 -59 -19 -54 -57 3 -31 43 -52 74 -38 16 7 13 9 -16 14 -29 5 -36 11
-38 33 -3 22 2 29 22 34 14 3 32 4 40 1 11 -4 16 3 18 26 3 27 7 32 28 30 l25
-3 -22 12 c-13 6 -23 15 -23 21 0 6 -5 6 -12 0 -18 -15 -98 -25 -98 -14 0 6
11 39 23 74 31 86 85 157 149 199 46 29 63 34 133 37 55 3 72 6 55 12 -41 12
-72 9 -127 -10z"/>
<path d="M783 2586 c68 -28 95 -45 148 -93 21 -19 39 -31 39 -25 0 33 -180
143 -233 142 -6 0 14 -11 46 -24z"/>
<path d="M245 2586 c-32 -14 -65 -46 -47 -46 6 0 14 5 17 10 3 6 23 19 43 30
42 22 33 26 -13 6z"/>
<path d="M339 2514 c-57 -72 -107 -109 -162 -119 -29 -6 -37 -3 -50 15 -21 30
-11 53 19 46 18 -5 24 -2 24 9 0 40 -65 22 -76 -21 -15 -59 67 -84 144 -45 41
21 71 52 126 129 53 74 36 65 -25 -14z"/>
<path d="M278 2552 c-30 -18 -39 -39 -10 -23 29 16 58 40 47 40 -5 0 -22 -7
-37 -17z"/>
<path d="M750 2520 c41 -21 80 -39 85 -39 17 0 -27 30 -80 55 -82 39 -86 26
-5 -16z"/>
<path d="M340 2401 c20 -4 42 -11 49 -15 9 -6 12 -4 9 5 -3 9 -21 15 -49 16
-42 1 -43 1 -9 -6z"/>
<path d="M270 2353 c-28 -10 -50 -36 -49 -57 0 -21 0 -21 9 1 5 12 18 26 29
32 53 29 180 -4 202 -53 10 -20 9 -30 -5 -50 -20 -32 -71 -42 -133 -26 -53 12
-74 25 -91 55 -8 14 -11 15 -11 5 0 -44 66 -80 149 -80 51 0 65 4 85 25 32 31
31 56 -1 94 -36 43 -135 72 -184 54z"/>
<path d="M704 2349 c-4 -7 -1 -10 7 -7 8 3 25 1 39 -3 24 -9 24 -8 6 6 -24 18
-42 19 -52 4z"/>
<path d="M650 2284 c-30 -13 -60 -48 -60 -71 0 -69 61 -113 155 -113 72 0 111
20 120 61 9 39 -16 76 -67 102 -38 19 -123 31 -148 21z m151 -39 c90 -47 46
-141 -62 -132 -123 10 -183 99 -98 145 29 16 118 8 160 -13z"/>
<path d="M707 2203 c-24 -23 12 -55 38 -33 12 10 13 16 4 26 -12 15 -31 18
-42 7z"/>
<path d="M327 2266 c-3 -8 0 -19 7 -25 16 -13 52 10 42 27 -10 17 -43 15 -49
-2z"/>
<path d="M515 2253 c11 -3 26 -10 33 -16 7 -5 16 -7 19 -3 11 11 -19 26 -47
25 -21 -1 -21 -2 -5 -6z"/>
<path d="M25 2185 c7 -69 58 -168 103 -202 20 -15 63 -51 95 -80 32 -29 74
-61 94 -71 30 -16 36 -25 39 -58 3 -33 0 -41 -19 -49 -12 -6 -41 -44 -64 -85
-50 -89 -137 -180 -211 -223 -63 -35 -70 -48 -47 -83 13 -21 22 -25 43 -19 46
11 155 77 204 123 55 51 57 47 32 -58 -8 -36 -26 -82 -40 -103 -14 -22 -23
-45 -20 -52 2 -7 23 -16 46 -20 30 -5 40 -11 36 -21 -30 -77 -86 -340 -86
-402 0 -40 2 -44 38 -59 66 -28 135 -43 228 -49 103 -8 159 5 170 38 l6 21 17
-21 c14 -20 20 -21 54 -11 21 6 52 22 68 37 l30 27 -37 72 c-37 72 -37 72 -42
222 -4 124 -2 151 9 151 37 1 42 16 19 66 -52 115 -89 249 -67 241 7 -2 24
-26 40 -53 16 -27 57 -78 91 -114 71 -73 109 -124 99 -134 -3 -3 4 -6 16 -6
14 0 21 -5 19 -12 -6 -17 -39 -23 -48 -8 -9 14 -5 -47 5 -77 9 -28 82 -40 122
-21 23 11 28 20 30 53 0 22 -1 29 -3 15 -9 -48 -16 -57 -24 -30 -7 23 -8 23
-9 3 -2 -36 -21 -37 -22 -1 l-2 33 -6 -34 c-9 -49 -26 -48 -27 2 -3 80 -4 85
-24 90 -31 8 -24 25 14 33 42 7 40 17 -24 97 -26 31 -78 115 -115 185 -37 70
-80 145 -95 166 l-27 39 25 44 c13 24 28 43 33 43 18 0 107 91 139 140 23 35
39 50 58 52 15 2 31 12 38 25 6 13 14 20 17 16 17 -16 5 57 -13 80 -11 14 -20
29 -20 34 0 4 -10 9 -22 9 -13 1 -41 5 -63 8 -40 6 -40 6 9 -12 54 -20 65 -33
43 -53 -12 -12 -11 -15 7 -24 12 -6 22 -22 24 -39 3 -27 2 -28 -27 -23 -22 5
-31 3 -31 -6 0 -24 -88 -135 -135 -171 -166 -126 -416 -109 -576 41 -54 51
-92 120 -111 203 -8 39 -13 48 -16 31 -3 -22 8 -83 25 -127 6 -18 6 -18 -16 0
-35 31 -64 86 -83 156 l-18 65 5 -50z m1005 -82 c0 -12 -2 -12 -15 1 -8 8 -15
20 -15 27 0 9 4 8 15 -1 8 -7 15 -19 15 -27z m-309 -347 c-24 -28 -181 -87
-181 -67 0 5 -2 16 -6 24 -4 11 9 15 65 19 41 3 80 12 93 21 29 20 44 22 29 3z
m-290 -16 c21 0 22 -1 4 -20 -20 -22 -36 -15 -56 22 -9 17 -8 18 10 9 11 -6
30 -11 42 -11z m-120 -139 c-26 -65 -60 -118 -102 -158 -37 -35 -144 -93 -171
-93 -34 0 -17 25 31 48 65 30 148 112 206 202 53 82 67 82 36 1z m179 14 c10
-12 10 -18 0 -30 -26 -31 -78 -8 -59 27 12 22 42 24 59 3z m379 -146 c36 -62
80 -130 98 -150 30 -33 32 -38 17 -50 -15 -12 -18 -11 -28 5 -6 10 -40 53 -75
95 -70 84 -128 189 -118 215 12 31 40 1 106 -115z m-267 41 c10 -19 24 -60 33
-91 9 -36 30 -74 54 -104 22 -26 42 -56 44 -67 9 -32 -52 -52 -158 -52 -84 -1
-90 0 -87 19 1 11 7 75 12 142 11 143 28 196 62 191 15 -2 29 -16 40 -38z
m-124 -22 c18 -18 15 -36 -8 -48 -29 -16 -60 -3 -60 24 0 12 3 26 7 29 11 11
48 8 61 -5z m-107 -192 c-5 -38 -13 -72 -18 -76 -4 -4 -26 -3 -49 2 l-41 9 38
72 c21 40 44 97 51 127 l13 55 7 -60 c5 -33 4 -91 -1 -129z m619 -136 c0 -11
-40 -34 -47 -26 -3 3 -3 12 0 21 7 16 47 21 47 5z m-597 -38 c10 -10 24 -41
32 -69 12 -41 27 -61 84 -112 62 -55 71 -67 82 -115 6 -30 9 -66 5 -81 l-7
-27 -112 4 c-89 2 -120 7 -152 24 -55 29 -63 57 -41 147 10 39 25 101 32 137
14 63 36 110 53 110 4 0 15 -8 24 -18z m607 -2 c0 -12 -28 -25 -36 -17 -9 9 6
27 22 27 8 0 14 -5 14 -10z"/>
<path d="M472 2138 c-7 -7 -12 -18 -12 -24 0 -17 28 -44 46 -44 22 0 17 17 -7
23 -17 5 -20 11 -17 31 6 30 6 30 -10 14z"/>
<path d="M301 2057 c-1 -33 23 -94 47 -120 48 -54 164 -80 249 -57 37 11 62
28 111 78 34 36 61 66 60 67 -2 1 -16 5 -31 9 -25 6 -28 4 -23 -12 9 -28 -33
-84 -84 -109 -85 -43 -215 -23 -272 42 -13 14 -31 49 -40 78 -13 40 -17 46
-17 24z"/>
<path d="M971 1937 c-2 -74 78 -177 139 -177 44 0 45 17 1 24 -61 9 -113 75
-134 171 -3 11 -5 3 -6 -18z"/>
<path d="M917 1904 c-21 -22 18 -94 51 -94 14 1 12 5 -7 20 -13 11 -26 34 -30
51 -3 17 -9 27 -14 23z"/>
<path d="M870 1819 c0 -36 97 -88 114 -61 3 5 -12 12 -33 16 -27 4 -46 15 -60
33 -14 19 -20 23 -21 12z"/>
<path d="M1213 1818 c-13 -6 -23 -14 -23 -18 0 -11 46 -21 67 -14 10 3 0 -11
-21 -30 -98 -89 -313 -89 -402 1 -20 20 -32 27 -26 17 53 -100 272 -132 399
-58 57 33 103 73 103 90 0 10 -6 11 -26 4 -14 -6 -35 -10 -46 -10 -17 0 -18 2
-8 15 14 17 13 18 -17 3z"/>
<path d="M1559 1650 c-16 -21 -26 -27 -35 -19 -18 15 -73 29 -79 20 -2 -5 7
-19 22 -32 25 -24 26 -24 14 -1 -15 28 -2 28 33 1 15 -12 28 -20 30 -18 2 2 8
13 14 24 11 19 11 18 12 -7 0 -16 5 -28 10 -28 6 0 10 13 10 29 0 16 3 36 6
45 10 27 -14 18 -37 -14z"/>
<path d="M1653 1640 c-18 -6 -35 -15 -39 -22 -4 -6 -3 -8 4 -4 19 12 109 25
131 19 22 -6 22 -6 1 -20 -32 -22 -24 -30 35 -36 82 -8 192 -67 126 -67 -30 0
-33 -16 -7 -34 33 -21 43 -54 21 -70 -16 -11 -16 -15 4 -47 11 -19 21 -40 21
-46 0 -19 -20 -16 -26 5 -15 46 -38 91 -44 87 -5 -3 -2 -26 6 -52 8 -25 14
-59 14 -75 0 -28 0 -28 -24 -12 -19 12 -29 13 -43 5 -16 -9 -15 -10 8 -11 32
0 43 -21 25 -46 -9 -11 -21 -15 -35 -11 -17 4 -21 2 -17 -9 11 -29 -50 -101
-111 -131 -53 -25 -68 -28 -163 -28 -88 0 -113 4 -155 23 -104 48 -159 128
-159 232 0 61 0 63 -9 26 -22 -91 39 -207 137 -259 37 -19 39 -22 17 -25 -48
-8 -112 10 -163 45 -29 19 -45 26 -35 15 10 -10 33 -28 53 -38 33 -18 42 -43
18 -51 -6 -2 -35 12 -64 32 -29 20 -54 34 -55 33 -2 -2 29 -27 68 -57 71 -54
111 -72 157 -70 16 0 8 5 -23 13 -58 16 -68 25 -61 52 5 19 10 21 42 13 22 -5
49 -4 68 2 21 6 46 6 75 0 100 -23 217 -4 292 47 21 14 49 26 62 27 14 0 37
13 54 29 20 20 30 24 34 14 7 -19 34 18 42 57 3 17 13 46 22 66 14 34 14 40
-5 82 -20 45 -20 46 -1 49 19 3 19 5 -5 53 -14 28 -26 51 -26 53 0 1 9 2 20 2
11 0 20 4 20 8 0 27 -105 81 -157 82 -37 0 -44 17 -11 29 14 5 18 10 9 15 -20
13 -114 16 -148 6z m262 -461 c-5 -16 -9 -18 -15 -8 -7 11 -13 10 -29 -5 -14
-13 -21 -15 -21 -6 0 10 -3 10 -15 0 -13 -11 -14 -10 -10 3 6 14 34 28 62 31
6 1 15 5 19 9 12 12 16 0 9 -24z"/>
<path d="M1318 1594 c-36 -19 -36 -28 1 -21 15 3 41 2 57 -2 29 -8 29 -8 -12
-15 -100 -18 -167 -105 -138 -181 6 -14 10 -10 20 15 16 38 18 51 4 30 -17
-26 -12 17 5 51 13 24 20 28 40 23 14 -3 37 -3 53 2 25 7 24 8 -18 14 l-45 6
30 13 c17 8 57 16 90 19 l60 5 -40 19 -40 19 50 -5 c47 -5 49 -5 25 9 -32 19
-108 18 -142 -1z"/>
<path d="M1617 1573 c-3 -5 22 -9 54 -10 34 -1 57 2 54 8 -7 11 -102 12 -108
2z"/>
<path d="M1690 1545 c0 -2 17 -12 38 -20 20 -9 52 -30 69 -47 33 -32 48 -34
37 -4 -10 27 -144 93 -144 71z"/>
<path d="M2255 1525 c-34 -9 -59 -24 -80 -48 -16 -18 -40 -39 -52 -46 -12 -6
-34 -27 -49 -47 -26 -34 -28 -43 -31 -156 -3 -107 -1 -126 18 -164 39 -81 134
-139 242 -147 67 -5 144 6 161 23 5 5 -8 4 -30 -1 -21 -6 -75 -9 -120 -7 -69
4 -90 9 -145 39 -54 30 -68 44 -92 90 -24 46 -28 63 -25 114 4 60 30 126 68
173 l19 23 29 -32 c24 -27 37 -33 84 -37 34 -3 76 2 111 12 105 31 160 14 196
-61 13 -26 39 -63 58 -82 37 -38 38 -54 5 -59 -12 -2 -20 -8 -17 -13 8 -12
-10 -44 -51 -89 l-34 -38 34 -16 c19 -9 41 -13 49 -10 8 3 32 1 53 -5 44 -12
57 -5 30 15 -17 12 -18 14 -3 14 15 0 17 14 16 125 l0 125 -33 0 c-34 0 -76
23 -64 36 5 4 19 2 33 -4 53 -24 65 -17 65 37 0 160 -245 290 -445 236z m233
-42 c29 -15 56 -31 59 -36 3 -5 -3 -4 -14 2 -32 17 -139 30 -170 21 -28 -8
-28 -8 7 -9 96 -3 218 -50 241 -93 17 -31 4 -32 -44 -4 -52 31 -102 33 -204
10 -52 -11 -75 -13 -97 -4 -26 10 -28 14 -23 48 l6 37 -19 -23 c-15 -18 -17
-29 -10 -48 12 -31 -3 -32 -24 -2 -22 31 -20 54 5 72 12 8 18 19 15 24 -5 9
25 25 69 36 47 12 150 -4 203 -31z m-387 -126 c-18 -18 -21 -19 -21 -5 0 22
33 55 38 38 3 -7 -5 -22 -17 -33z"/>
<path d="M1540 1521 c0 -8 10 -25 22 -38 21 -22 21 -23 2 -23 -24 0 -47 17
-62 45 -11 20 -11 20 -12 -2 0 -41 86 -84 105 -53 6 10 71 6 118 -7 25 -7 47
-56 47 -107 0 -51 13 -66 32 -36 15 24 28 26 28 5 0 -8 5 -15 11 -15 7 0 8 12
4 33 -10 44 -13 46 -35 18 l-18 -24 -7 43 c-5 28 -18 54 -35 72 -16 15 -24 28
-18 28 6 0 8 3 4 8 -4 4 -37 7 -73 7 -60 1 -67 3 -89 30 -14 17 -24 24 -24 16z"/>
<path d="M1441 1514 c-2 -21 -68 -44 -126 -44 -35 0 -54 -4 -50 -10 14 -22
145 -4 173 23 8 8 12 21 9 29 -3 7 -6 8 -6 2z"/>
<path d="M1394 1369 c-10 -17 13 -36 27 -22 12 12 4 33 -11 33 -5 0 -12 -5
-16 -11z"/>
<path d="M1851 1370 c0 -8 4 -24 9 -35 l9 -20 0 20 c0 11 -4 27 -9 35 -9 13
-10 13 -9 0z"/>
<path d="M1631 1330 c-16 -9 -6 -30 15 -30 15 0 20 25 6 34 -4 2 -14 1 -21 -4z"/>
<path d="M7 1293 c-4 -3 -7 -11 -7 -17 0 -6 5 -5 12 2 6 6 9 14 7 17 -3 3 -9
2 -12 -2z"/>
<path d="M1475 1260 c28 -12 37 -12 30 0 -3 6 -16 10 -28 9 -21 0 -21 -1 -2
-9z"/>
<path d="M1320 1245 c0 -27 38 -91 70 -118 57 -48 143 -57 210 -22 14 7 43 32
65 55 33 34 37 42 25 50 -22 14 -30 12 -30 -8 0 -71 -135 -125 -223 -88 -41
16 -86 69 -94 108 -6 31 -23 48 -23 23z"/>
<path d="M1035 1237 c-20 -15 -13 -37 13 -37 13 0 13 2 -3 14 -18 13 -18 14 5
21 18 6 28 2 42 -15 23 -28 33 -22 12 8 -17 25 -42 28 -69 9z"/>
<path d="M2153 1233 c-18 -6 -16 -33 1 -33 19 0 31 19 20 30 -5 4 -15 5 -21 3z"/>
<path d="M2395 1201 c-3 -5 -1 -12 5 -16 12 -7 30 2 30 16 0 12 -27 12 -35 0z"/>
<path d="M2244 1148 c-4 -7 -3 -8 5 -4 6 4 18 2 26 -4 9 -7 15 -8 15 -2 0 5
-7 13 -16 16 -21 8 -22 8 -30 -6z"/>
<path d="M2140 1103 c0 -20 43 -75 72 -94 26 -16 45 -19 90 -16 61 3 87 20
130 80 19 27 19 27 -1 27 -14 0 -21 -6 -21 -19 0 -26 -53 -69 -96 -77 -66 -12
-154 34 -154 82 0 7 -4 16 -10 19 -5 3 -10 3 -10 -2z"/>
<path d="M1681 977 l46 -32 -17 -30 c-17 -30 -17 -45 1 -45 5 0 9 7 9 16 0 11
6 14 20 10 56 -16 65 -17 50 -7 -8 6 -23 11 -32 11 -21 0 -33 19 -21 31 5 5
35 -2 72 -17 34 -14 65 -24 67 -22 2 3 -22 15 -54 28 -31 13 -83 39 -114 57
-72 42 -86 42 -27 0z"/>
<path d="M1420 985 c0 -21 47 -48 82 -47 33 1 68 27 68 50 0 10 -8 6 -25 -12
-30 -33 -68 -34 -100 -1 -17 16 -25 19 -25 10z"/>
<path d="M2140 904 l-45 -14 39 5 c22 2 44 9 50 15 5 5 8 9 6 9 -3 -1 -25 -8
-50 -15z"/>
<path d="M1328 860 c-21 -28 -35 -56 -32 -63 3 -8 -9 -39 -26 -71 -30 -58 -31
-76 -4 -76 8 0 46 -16 84 -35 38 -19 72 -35 74 -35 2 0 10 16 16 35 14 42 25
45 33 8 13 -56 16 -57 125 -23 110 34 108 31 69 98 -18 30 -18 34 -3 51 14 16
14 20 -4 56 -11 22 -20 46 -20 54 0 8 -3 12 -6 9 -5 -6 6 -53 20 -89 10 -22
-58 -49 -123 -49 -57 0 -166 32 -201 59 -23 18 -23 21 -8 38 15 17 51 83 46
83 -2 0 -20 -23 -40 -50z m23 -147 c-19 -35 -39 -58 -46 -51 -10 10 24 68 41
68 11 0 12 -4 5 -17z m29 -44 c-7 -16 -19 -29 -26 -29 -18 0 -18 2 8 46 24 41
37 30 18 -17z m186 -4 c18 -43 14 -51 -27 -60 -37 -8 -49 5 -48 50 l1 30 14
-32 c19 -44 38 -54 32 -17 -3 16 -9 37 -13 47 -5 12 -3 17 9 17 10 0 23 -15
32 -35z"/>
<path d="M1916 889 c-25 -37 8 -57 35 -21 11 14 11 15 -1 5 -23 -21 -43 -17
-30 7 6 11 19 20 30 20 23 0 50 -42 31 -48 -9 -3 -9 -8 1 -20 11 -14 10 -15
-7 -8 -16 6 -18 5 -7 -5 24 -25 12 -29 -25 -9 -28 15 -39 17 -42 8 -2 -7 -8
-16 -13 -19 -11 -7 30 -49 46 -48 6 0 5 3 -2 6 -10 4 -10 8 -1 19 15 19 33 18
25 -1 -4 -13 -2 -14 14 -5 26 14 35 53 24 99 -7 29 -14 37 -36 39 -18 2 -31
-4 -42 -19z m14 -88 c0 -12 -20 -25 -27 -18 -7 7 6 27 18 27 5 0 9 -4 9 -9z"/>
<path d="M2221 895 c-4 -58 -106 -193 -175 -232 -19 -10 -18 -12 10 -37 49
-43 141 -84 219 -97 70 -12 87 -20 66 -33 -35 -22 -278 67 -289 106 -2 9 -13
20 -24 24 -12 3 -17 11 -14 21 4 10 0 13 -12 11 -25 -5 -21 -32 6 -36 18 -3
23 -8 19 -23 -4 -15 1 -23 18 -29 13 -5 26 -14 30 -19 3 -6 14 -11 25 -11 10
0 20 -7 24 -15 3 -8 16 -15 30 -15 14 0 28 -5 31 -11 4 -6 14 -8 22 -5 8 3 24
1 36 -6 29 -16 107 -20 107 -6 0 6 10 8 25 4 14 -4 33 -2 43 3 11 6 24 6 32 1
10 -6 21 -3 32 7 10 9 26 13 38 10 15 -4 25 2 36 19 9 13 21 21 26 18 6 -4 20
3 32 15 11 12 30 28 40 35 26 18 12 36 -27 36 -26 0 -43 11 -84 53 -53 55 -74
87 -98 152 -15 39 -15 39 -10 6 8 -52 43 -115 91 -162 42 -42 62 -76 27 -48
-15 12 -16 12 -11 -2 8 -20 -9 -39 -34 -39 -10 0 -18 -4 -18 -10 0 -5 -11 -10
-24 -10 -14 0 -28 -5 -32 -11 -3 -6 -17 -9 -30 -6 -13 2 -25 -1 -27 -7 -3 -8
-10 -8 -25 1 -15 9 -22 9 -24 1 -3 -8 -11 -9 -24 -3 -10 4 -23 7 -27 6 -21 -4
-147 45 -147 58 0 5 -8 8 -17 7 -12 0 -17 5 -15 16 2 12 -3 15 -18 11 -31 -8
-25 3 39 65 63 62 115 150 108 185 -4 20 -4 20 -6 2z"/>
<path d="M2290 894 c0 -8 5 -12 10 -9 6 4 8 11 5 16 -9 14 -15 11 -15 -7z"/>
<path d="M1495 890 c-16 -7 -14 -9 15 -9 19 0 42 4 50 9 11 7 8 10 -15 9 -16
0 -39 -4 -50 -9z"/>
<path d="M2033 883 c9 -2 25 -2 35 0 9 3 1 5 -18 5 -19 0 -27 -2 -17 -5z"/>
<path d="M2231 854 c-7 -20 -11 -38 -8 -40 3 -3 10 11 17 31 16 47 8 55 -9 9z"/>
<path d="M2360 851 l0 -40 -47 -4 -48 -3 53 -2 52 -2 0 45 c0 25 -2 45 -5 45
-3 0 -5 -18 -5 -39z"/>
<path d="M1420 850 c43 -33 157 -38 177 -8 4 8 0 9 -11 5 -50 -19 -95 -19
-142 2 -46 20 -48 20 -24 1z"/>
<path d="M2675 860 c-3 -6 1 -7 9 -4 18 7 21 14 7 14 -6 0 -13 -4 -16 -10z"/>
<path d="M2085 850 l-40 -7 45 -1 c25 0 54 3 65 8 18 8 18 9 -5 8 -14 -1 -43
-4 -65 -8z"/>
<path d="M2593 853 c15 -2 37 -2 50 0 12 2 0 4 -28 4 -27 0 -38 -2 -22 -4z"/>
<path d="M2285 840 c3 -5 8 -10 11 -10 2 0 4 5 4 10 0 6 -5 10 -11 10 -5 0 -7
-4 -4 -10z"/>
<path d="M2494 836 c19 -15 99 -36 141 -36 17 0 29 -9 40 -30 9 -16 17 -30 20
-30 10 0 0 62 -11 67 -8 3 -11 9 -8 15 3 5 -3 4 -13 -3 -16 -9 -33 -9 -84 3
-35 8 -73 18 -84 22 -19 7 -19 7 -1 -8z"/>
<path d="M1388 801 c46 -40 150 -53 207 -26 l30 14 -40 -6 c-74 -12 -129 -7
-175 16 -42 20 -43 21 -22 2z"/>
<path d="M2149 713 l-24 -26 27 19 c15 10 28 22 28 27 0 12 -5 8 -31 -20z"/>
<path d="M2429 721 c7 -5 10 -15 7 -22 -4 -8 -1 -6 7 4 14 16 15 16 31 -8 17
-25 17 -26 -18 -40 -42 -18 -53 -18 -59 -5 -3 6 -4 5 -3 -2 4 -17 52 -13 82 7
24 16 24 16 7 45 -12 21 -25 30 -43 30 -18 0 -21 -3 -11 -9z"/>
<path d="M2220 698 c0 -13 -5 -30 -10 -38 -8 -13 -14 -13 -42 3 l-33 17 24
-20 c13 -12 31 -20 39 -18 19 4 46 65 32 73 -6 3 -10 -4 -10 -17z"/>
<path d="M301 634 c0 -11 3 -14 6 -6 3 7 2 16 -1 19 -3 4 -6 -2 -5 -13z"/>
<path d="M348 573 c-25 -56 -46 -134 -35 -123 8 7 67 174 63 178 -2 1 -14 -24
-28 -55z"/>
<path d="M701 563 c60 -107 59 -103 41 -126 -45 -57 -82 -87 -106 -87 -30 0
-31 2 -11 39 9 18 32 36 65 50 29 12 49 25 46 28 -3 3 -30 -7 -61 -21 -62 -31
-95 -76 -74 -102 27 -33 105 1 140 61 25 41 31 43 52 13 l16 -23 0 31 c1 16
-6 39 -15 50 -15 19 -15 18 -11 -3 6 -29 -9 -30 -18 -2 -8 24 -85 149 -92 149
-3 0 10 -26 28 -57z"/>
<path d="M1803 604 c3 -3 20 -13 39 -22 26 -14 34 -24 36 -51 5 -45 -10 -58
-42 -37 -18 11 -28 29 -32 56 l-7 40 -29 -25 c-37 -31 -74 -32 -106 -2 l-25
22 14 -23 c21 -35 61 -40 124 -17 15 5 14 1 -8 -19 -40 -37 -86 -35 -134 5
l-38 32 37 -36 c49 -48 78 -55 125 -27 l37 22 19 -26 c20 -28 55 -34 75 -14
35 35 -13 128 -67 128 -13 0 -22 -3 -18 -6z"/>
<path d="M292 574 c-1 -17 -4 -53 -7 -80 -5 -41 -4 -45 5 -24 6 13 9 49 7 80
-2 30 -4 41 -5 24z"/>
<path d="M757 575 c3 -16 9 -37 14 -45 15 -27 10 11 -6 45 l-14 30 6 -30z"/>
<path d="M1268 518 c-38 -40 -68 -69 -68 -65 0 4 11 30 25 57 14 28 23 50 20
50 -10 0 -55 -101 -49 -111 3 -5 0 -16 -6 -24 -7 -9 -8 -15 -2 -15 5 0 22 17
38 38 16 20 50 61 78 90 27 28 45 52 40 52 -5 0 -39 -33 -76 -72z"/>
<path d="M2640 507 c-14 -5 -41 -13 -60 -17 -30 -7 -32 -8 -8 -9 15 0 39 4 55
9 27 10 27 9 8 -6 -11 -9 -33 -22 -50 -30 -16 -7 -24 -13 -17 -14 7 0 26 7 42
15 l28 14 -5 -38 c-4 -30 -1 -43 15 -59 14 -14 17 -22 9 -26 -7 -2 -1 -5 13
-5 23 -1 26 3 28 37 2 30 0 34 -9 20 -17 -29 -41 -22 -37 10 2 21 8 27 26 26
19 0 22 4 22 37 0 41 -19 53 -60 36z"/>
<path d="M4 465 c0 -40 3 -39 16 4 6 23 5 31 -4 31 -7 0 -12 -14 -12 -35z"/>
<path d="M2066 461 l-38 -38 -39 21 c-30 16 -42 19 -56 10 -24 -15 -23 -44 2
-58 11 -6 23 -15 26 -19 3 -5 21 -7 40 -5 28 2 34 7 31 25 -2 12 5 27 15 35
21 16 68 68 62 68 -3 0 -22 -17 -43 -39z m-86 -37 c0 -10 -7 -14 -22 -12 -32
5 -35 28 -4 28 17 0 26 -5 26 -16z"/>
<path d="M1027 462 c-23 -26 -21 -41 10 -74 l27 -28 -25 -2 c-13 -1 35 -4 106
-7 72 -4 134 -3 140 1 5 5 -29 8 -75 8 l-83 0 24 27 c21 23 22 25 4 18 -60
-24 -125 -12 -125 23 0 44 45 54 98 22 17 -11 32 -16 32 -12 0 14 -58 42 -87
42 -17 0 -37 -8 -46 -18z"/>
<path d="M2097 439 c-27 -21 -44 -39 -37 -39 6 0 30 18 53 40 53 50 46 50 -16
-1z"/>
<path d="M2494 456 c11 -9 24 -16 30 -16 12 0 7 5 -24 19 -24 11 -24 11 -6 -3z"/>
<path d="M161 456 c2 -2 26 -6 53 -9 30 -3 43 -1 35 4 -13 8 -97 13 -88 5z"/>
<path d="M112 434 c-15 -10 -22 -24 -20 -37 4 -31 60 -34 128 -8 55 21 80 16
80 -15 0 -8 5 -14 10 -14 6 0 10 9 10 19 0 11 3 28 7 38 6 16 5 16 -10 4 -13
-10 -20 -11 -30 -2 -10 8 -27 5 -65 -9 -68 -26 -112 -27 -112 -2 0 11 10 24
23 30 12 6 17 11 12 11 -6 1 -21 -6 -33 -15z"/>
<path d="M40 355 c-7 -8 -20 -15 -29 -16 -10 0 -11 -2 -3 -6 6 -2 12 -12 12
-21 1 -15 2 -15 14 1 15 19 36 23 36 6 0 -8 4 -8 13 -2 8 7 40 7 93 0 56 -6
104 -6 150 1 l69 11 -80 -4 c-44 -2 -122 1 -172 7 -76 9 -91 14 -82 25 7 8 8
13 1 13 -5 0 -15 -7 -22 -15z"/>
<path d="M2078 363 c23 -2 59 -2 80 0 20 2 1 4 -43 4 -44 0 -61 -2 -37 -4z"/>
<path d="M480 334 c-13 -34 -13 -41 6 -48 16 -6 49 12 39 22 -2 3 -12 -1 -21
-9 -16 -13 -17 -11 -11 24 7 43 1 48 -13 11z"/>
<path d="M1683 318 c12 -23 22 -37 25 -30 4 13 -25 72 -37 72 -5 0 1 -19 12
-42z"/>
<path d="M1752 337 c-17 -20 -25 -64 -13 -71 7 -5 11 3 11 19 0 15 5 35 10 46
12 22 8 25 -8 6z"/>
<path d="M874 328 c59 -6 112 -6 116 -1 5 4 -44 9 -108 9 l-117 2 109 -10z"/>
<path d="M1794 315 c-8 -13 -14 -32 -12 -42 2 -13 9 -6 24 25 23 45 15 58 -12
17z"/>
<path d="M416 322 c5 -4 18 -18 27 -32 9 -13 17 -19 17 -12 0 24 -21 52 -38
52 -10 0 -13 -3 -6 -8z"/>
<path d="M1278 323 c12 -2 30 -2 40 0 9 3 -1 5 -23 4 -22 0 -30 -2 -17 -4z"/>
<path d="M1455 320 c33 -4 80 -8 105 -8 40 0 42 1 15 8 -16 4 -64 8 -105 7
l-75 0 60 -7z"/>
<path d="M1660 302 c6 -13 14 -21 18 -18 3 4 -2 14 -12 24 -18 16 -18 16 -6
-6z"/>
<path d="M2171 316 c2 -2 74 -6 159 -9 87 -3 142 -2 125 2 -29 8 -292 15 -284
7z"/>
<path d="M1836 294 c-11 -28 -6 -39 9 -20 8 11 15 23 15 28 0 14 -18 9 -24 -8z"/>
<path d="M533 285 c-9 -25 4 -29 17 -6 7 15 7 21 0 21 -6 0 -13 -7 -17 -15z"/>
<path d="M1158 283 c23 -2 59 -2 80 0 20 2 1 4 -43 4 -44 0 -61 -2 -37 -4z"/>
<path d="M1968 283 c12 -2 30 -2 40 0 9 3 -1 5 -23 4 -22 0 -30 -2 -17 -4z"/>
<path d="M1373 273 c9 -2 23 -2 30 0 6 3 -1 5 -18 5 -16 0 -22 -2 -12 -5z"/>
<path d="M2678 273 c7 -3 16 -2 19 1 4 3 -2 6 -13 5 -11 0 -14 -3 -6 -6z"/>
<path d="M645 250 c46 -12 117 -12 110 0 -3 6 -36 9 -73 9 -52 -1 -60 -3 -37
-9z"/>
<path d="M2125 249 c-4 -5 14 -9 41 -9 55 0 55 5 2 13 -21 3 -40 1 -43 -4z"/>
<path d="M403 233 c9 -2 25 -2 35 0 9 3 1 5 -18 5 -19 0 -27 -2 -17 -5z"/>
<path d="M2430 163 c0 -5 4 -13 9 -18 5 -6 11 -21 13 -35 2 -14 11 -26 21 -28
14 -3 17 3 16 35 -1 21 -3 30 -6 21 -5 -21 -23 -24 -23 -4 0 7 -7 19 -15 26
-8 7 -15 8 -15 3z"/>
<path d="M996 115 c20 -50 29 -59 20 -20 -4 17 -14 37 -22 45 -12 12 -12 8 2
-25z"/>
<path d="M1030 110 c0 -39 6 -39 12 0 3 16 1 30 -4 30 -4 0 -8 -13 -8 -30z"/>
<path d="M2510 119 c-6 -11 -10 -25 -7 -32 2 -6 11 3 19 21 18 35 6 45 -12 11z"/>
<path d="M2389 106 c14 -14 26 -24 29 -22 7 8 -8 25 -31 37 -21 11 -21 10 2
-15z"/>
<path d="M2583 118 c-19 -24 -24 -38 -15 -38 5 0 14 11 20 25 13 27 10 32 -5
13z"/>
<path d="M890 101 c-12 -24 -13 -31 -1 -31 5 0 11 11 13 25 6 30 2 32 -12 6z"/>
<path d="M1097 113 c-4 -3 -7 -13 -7 -22 1 -13 3 -13 11 2 11 19 8 33 -4 20z"/>
<path d="M965 90 c10 -11 20 -20 23 -20 3 0 -3 9 -13 20 -10 11 -20 20 -23 20
-3 0 3 -9 13 -20z"/>
<path d="M825 80 c3 -5 8 -10 11 -10 2 0 4 5 4 10 0 6 -5 10 -11 10 -5 0 -7
-4 -4 -10z"/>
<path d="M1139 73 c-13 -16 -12 -17 4 -4 16 13 21 21 13 21 -2 0 -10 -8 -17
-17z"/>
</g>
</svg>
